<svg xmlns="http://www.w3.org/2000/svg" viewBox="0 0 128 128">
  <ellipse cx="60" cy="121" rx="30" ry="4" fill="#1f2a24" opacity="0.1"/>
  <path d="M50 8h20v28c0 6 4 9 8 14 4 5 6 10 6 18v46c0 4-3 7-7 7H43c-4 0-7-3-7-7V68c0-8 2-13 6-18 4-5 8-8 8-14Z" fill="#2f5d3a"/>
  <path d="M70 8v28c0 6 4 9 8 14 4 5 6 10 6 18v46c0 4-3 7-7 7h-6c4 0 6-3 6-7V68c0-8-2-13-6-18-3-4-6-8-6-14V8Z" fill="#244a2e"/>
  <path d="M44 60c-2 4-3 8-3 14v30" fill="none" stroke="#5f8f69" stroke-width="4" stroke-linecap="round" opacity="0.8"/>
  <rect x="48" y="4" width="24" height="12" rx="3" fill="#8e1f3f"/>
  <rect x="38" y="72" width="44" height="30" rx="4" fill="#f4ead2"/>
  <path d="M60 79c-5 0-8 4-8 8 0 5 4 8 8 8s8-3 8-8c0-4-3-8-8-8Z" fill="#8e1f3f"/>
  <path d="M60 84v8M56 88h8" stroke="#f4ead2" stroke-width="2" stroke-linecap="round"/>
  <path d="M96 64h18l-2 14c-1 6-5 9-7 9s-6-3-7-9Z" fill="#e9f1ec" stroke="#b9c9bf" stroke-width="1.5"/>
  <path d="M97.5 72h15l-1 6c-1 5-4 7-6.5 7s-5.5-2-6.5-7Z" fill="#8e1f3f"/>
  <path d="M105 87v22" stroke="#b9c9bf" stroke-width="2.5" stroke-linecap="round"/>
  <path d="M97 112h16" stroke="#b9c9bf" stroke-width="3" stroke-linecap="round"/>
</svg>
